<?xml version="1.0" encoding="utf-8"?>
<!-- Generator: Adobe Illustrator 21.1.0, SVG Export Plug-In . SVG Version: 6.00 Build 0)  -->
<svg version="1.1" xmlns="http://www.w3.org/2000/svg" xmlns:xlink="http://www.w3.org/1999/xlink" x="0px" y="0px"
	 viewBox="0 0 765.7 517" style="enable-background:new 0 0 765.7 517;" xml:space="preserve">
<style type="text/css">
	.st0{fill:#5497DB;}
	.st1{fill:#E9FAFF;}
	.st2{fill:#0A4C8E;}
	.st3{fill:#FFFFFF;}
	.st4{fill:#80C9FF;}
	.st5{fill:#ED8B00;}
	.st6{fill:#F2F0F0;}
	.st7{fill:#65DCFC;}
	.st8{fill:#4ECDF9;}
	.st9{fill:#0A84F2;}
	.st10{fill:#FFB285;}
	.st11{fill:#FF809F;}
	.st12{fill:#252730;}
	.st13{fill:#C9E8FF;}
	.st14{fill:#FBB040;}
	.st15{fill:#FFD545;}
	.st16{fill:none;stroke:#FFFFFF;stroke-width:2;stroke-miterlimit:10;}
	.st17{fill:#005EB8;}
	.st18{fill:#13D9B9;}
	.st19{fill:#6CABE6;}
	.st20{clip-path:url(#SVGID_2_);}
	.st21{fill:#775746;}
	.st22{fill:#21333A;}
	.st23{fill:#724A3B;}
</style>
<g id="Layer_2">
</g>
<g id="color_palette">
	<g>
		<g>
			<path class="st0" d="M217.7,182.9l5.7,19.4c0.9-0.3,1.9-0.6,2.8-0.9l-6.3-19.2C219.2,182.4,218.5,182.6,217.7,182.9z"/>
			<path class="st0" d="M222.1,181.4l7,19c12.6-4.7,24.1-12.1,33.5-21.7L248,164.6C240.7,172.1,231.9,177.8,222.1,181.4z"/>
			<path class="st0" d="M286,96.4l-19.8,4.4c4.8,21.7-1,44.4-15.7,61.1l15.2,13.4C284.7,153.7,292.2,124.4,286,96.4z"/>
			<path class="st0" d="M260.6,84.9l18.1-9c-1.3-2.6-2.7-5.1-4.2-7.5l-17.2,10.7C258.5,81,259.6,82.9,260.6,84.9z"/>
			<path class="st0" d="M128.5,116c0-34.9,25.8-64.4,60.4-69.1c2.2-0.7,4.6-0.9,6.9-0.6c0.8,0,1.5,0,2.3,0
				c22.1,0.1,42.9,10.6,56.1,28.3l16.3-12.1c-29.5-40-85.8-48.5-125.8-18.9c-27.9,20.6-41.5,55.4-34.9,89.4l19.9-3.8
				C128.9,124.9,128.5,120.4,128.5,116z"/>
			<path class="st0" d="M130.5,132.5l-19.7,4.8c0.4,1.8,0.9,3.5,1.5,5.3l19.4-6C131.2,135.2,130.8,133.8,130.5,132.5z"/>
			<path class="st0" d="M198.2,185.6c-8.7,0-17.2-1.6-25.3-4.7c-17.2-6.8-31-20-38.5-36.9l-18.6,8.2c9.7,21.8,27.5,38.9,49.7,47.7
				c16.7,6.5,35,7.9,52.4,3.9l-4.4-19.8C208.5,185.1,203.3,185.6,198.2,185.6z"/>
		</g>
	</g>
	<g>
		<path class="st1" d="M285.8,46.1h106.1c4.3,0,7.8,3.5,7.8,7.8v28.4c0,4.3-3.5,7.8-7.8,7.8H285.8c-4.3,0-7.8-3.5-7.8-7.8V53.9
			C278,49.5,281.5,46.1,285.8,46.1z"/>
		<circle class="st2" cx="299.4" cy="68.1" r="13.3"/>
		<path class="st3" d="M301.2,70.2h-3.5l-0.5-9.9h4.5L301.2,70.2z M297.2,73.9c0-0.6,0.2-1.1,0.6-1.5c0.5-0.4,1-0.6,1.6-0.5
			c0.6,0,1.2,0.1,1.6,0.5c0.4,0.4,0.6,0.9,0.6,1.5c0,0.6-0.2,1.1-0.6,1.5c-0.4,0.4-1,0.6-1.6,0.5c-0.6,0-1.2-0.2-1.6-0.5
			C297.4,75,297.2,74.4,297.2,73.9z"/>
		<rect x="319.5" y="65.5" class="st4" width="69.7" height="4.7"/>
		<rect x="319.5" y="56.1" class="st2" width="31.2" height="4.7"/>
		<rect x="319.5" y="75.1" class="st4" width="69.7" height="4.7"/>
		<rect x="382.9" y="46.1" class="st5" width="6.2" height="12.4"/>
	</g>
	<g>
		<g>
			<g>
				<path class="st6" d="M221.2,61.2c2.9,1.9,6.3,2.9,9.7,2.9c-4.6-2.9-9.7-5.2-14.9-6.8C217.8,58.7,219.6,60.1,221.2,61.2z"/>
				<path class="st6" d="M172.1,87.5c0,0.1,0,0.1,0,0.2c0.5-0.2,1-0.3,1.5-0.3h1v-4l-0.4-0.8c-1.4,1-2.2,2.5-2.2,4.2L172.1,87.5z"/>
				<path class="st3" d="M165.8,135.8c-2.4-5.9,0.5-12.6,6.3-15c1.4-0.6,2.9-0.8,4.3-0.8h1c-1.8-3-2.8-6.5-2.8-10V95.8h-1
					c-2.3,0-4.2-1.9-4.2-4.2c0-1.2,0.5-2.3,1.4-3.1c-0.1-0.3-0.1-0.7-0.1-1v-0.8c0-2.2,1.1-4.2,3-5.4c-1.8-4-2.8-8.4-2.9-12.8
					c0-8.3,7-10.6,10.9-11.2c0-0.1,0-0.2,0-0.3c-24.5,6.9-42.3,28.2-44.5,53.6v0.1c-0.1,0.8-0.1,1.7-0.2,2.5c0,0.1,0,0.2,0,0.4
					c0,0.8,0,1.6,0,2.4c0,0,0,0.1,0,0.1c0,0.9,0,1.7,0.1,2.6v0.1c0.5,11.2,4,22,10.2,31.3l0.1,0.1
					C151.6,143.4,158.2,138.4,165.8,135.8z"/>
				<path class="st3" d="M238,70.2C238,70.2,238,70.2,238,70.2c-0.7,6.5-3.3,15.4-11.9,17.5c0,0.4-0.1,0.7-0.1,1.1
					c0.6,0.7,1,1.7,1,2.6c0,2.4-2,4.4-4.4,4.4l0,0h-0.9v14.3c0,3.5-1,7-2.8,10h1c6.3,0,11.5,5.1,11.5,11.5c0,1.5-0.3,3-0.8,4.3
					c7.6,2.5,14.1,7.5,18.4,14.2c-5.9,8.8-14.1,16-23.6,20.7c-1.3,0.6-2.6,1.2-4,1.8l-1.1,0.4c-7.1,2.8-14.6,4.2-22.2,4.2l0,0
					c7.6,0,15.2-1.4,22.3-4.2l1.1-0.4c31.3-12.9,46.3-48.7,33.4-80c-3.7-9-9.4-16.9-16.8-23.2C238,69.7,238,69.9,238,70.2z"/>
				<path class="st7" d="M221.5,172.7c1.3-0.6,2.7-1.2,4-1.8c9.5-4.8,17.7-11.9,23.6-20.8c-4.4-6.7-10.8-11.7-18.4-14.2
					c-1.7,4.4-6,7.2-10.7,7.2h-9.1v22.4h-1.3v-22.4h-22.5v22.4h-1.3v-22.4h-9.1c-4.7,0-8.9-2.9-10.7-7.2
					c-7.6,2.5-14.1,7.6-18.5,14.3c5.5,8.1,12.8,14.8,21.4,19.5c5,2.8,10.4,4.8,16,6.1c0.4,0.1,0.9,0.2,1.3,0.3
					c4,0.8,8.1,1.2,12.2,1.2l0,0c7.6,0,15.1-1.4,22.2-4.2L221.5,172.7z"/>
				<path class="st8" d="M220,123.3c5.8,0,6.9,8.4,1.3,9.8l-10.6,2.8l0,0l-12.4,3.3l0,0l-10.9-2.9l-12.1-3.2
					c-5.7-1.5-4.6-9.8,1.3-9.8h3.3l0,0c-0.9-1-1.7-2-2.3-3.2h-0.7c-5.9-0.1-11,4.3-11.8,10.2c-0.7,6.3,3.9,12,10.2,12.7
					c0.4,0,0.8,0.1,1.2,0.1h9.1l0,0V140l0,0h1.3l0,0v3.1l0,0h22.5l0,0V140l0,0h1.3l0,0v3.1l0,0h9.1c6.4,0,11.5-5.2,11.5-11.5
					c0-0.4,0-0.8-0.1-1.2c-0.8-5.9-5.8-10.3-11.8-10.2h-0.7c-0.7,1.1-1.5,2.2-2.3,3.2l0,0L220,123.3z"/>
				<path class="st9" d="M210.6,135.9l10.8-2.8c5.6-1.5,4.6-9.8-1.3-9.8h-3.6c-1.7,1.8-3.7,3.3-5.9,4.4L210.6,135.9L210.6,135.9z"/>
				<path class="st9" d="M175,133l12.3,3.2l-1.5-0.4v-8.2c-2.2-1.1-4.3-2.6-5.9-4.4h-3.6C170.4,123.3,169.4,131.6,175,133z"/>
				<polygon class="st9" points="198.2,139.1 198.2,139.1 198.2,139.1 				"/>
				<path class="st10" d="M185.8,135.9l1.5,0.4l10.9,2.9l0,0l12.4-3.3l0,0v-2.4h-0.9h-10.4c-5.1,0-9.9-2.1-13.4-5.8h-0.1
					L185.8,135.9z"/>
				<path class="st10" d="M170.9,88.5c-1.7,1.6-1.9,4.2-0.3,5.9c0.8,0.9,1.9,1.4,3.1,1.4h1v-2.3C172.6,92.6,171.2,90.7,170.9,88.5z"
					/>
				<path class="st10" d="M173.7,87.4c-0.5,0-1,0.1-1.5,0.3c0.1,1.8,1,3.4,2.6,4.2v-4.5H173.7z"/>
				<path class="st10" d="M221.7,93.6v2.2h0.9c2.4,0,4.4-2,4.4-4.4v0c0-1-0.3-1.9-1-2.6C225.5,91.1,223.9,92.9,221.7,93.6z"/>
				<path class="st10" d="M224.6,88.1c-0.9,0.1-1.9,0.2-2.9,0.1v4c1.7-0.8,2.8-2.3,3-4.1H224.6z"/>
				<path class="st10" d="M199.2,133.5h10.4h0.9v-5.8c-2.6,1.2-5.5,1.9-8.4,1.9h-8c-2.9,0-5.8-0.6-8.4-1.9
					C189.3,131.4,194.1,133.6,199.2,133.5z"/>
				<path class="st2" d="M174.7,87.4V92c0.7,0.4,1.5,0.7,2.4,0.7v-5c0-2,0.1-4,0.3-6h-0.1c-1.1,0-2.1,0.3-3,0.9l0.4,0.8L174.7,87.4z
					"/>
				<path class="st2" d="M219.3,87.9v4.8h0.3c0.7,0,1.5-0.2,2.1-0.5v-4C220.9,88.2,220.1,88.1,219.3,87.9z"/>
				<path class="st2" d="M219.6,94h-0.3v0.3c0,3-2.5,5.5-5.5,5.5l0,0H211c-1.1-2.3-2.7-4.3-4.8-5.7c-1.7,0-3.4-0.8-4.6-2
					c-1.1-0.3-2.2-0.4-3.3-0.4l0,0c-0.9,0-1.9,0.1-2.8,0.3c-1.2,1.4-3,2.2-4.8,2.2h-0.3c-2.1,1.4-3.8,3.4-4.8,5.7h-2.9
					c-3,0-5.5-2.5-5.5-5.5v0V94c-0.8,0-1.6-0.2-2.4-0.5v16.6c0,7.5,4.3,14.3,11.1,17.6h0.1c2.6,1.2,5.5,1.9,8.4,1.9h8
					c10.8,0,19.5-8.7,19.5-19.5l0,0V93.6C221.1,93.9,220.3,94,219.6,94z"/>
				<path class="st10" d="M215.5,94.5c0,1.4-1.2,2.6-2.6,2.6l0,0h-3.4c0.6,0.8,1.1,1.7,1.6,2.6h2.9c3,0,5.5-2.5,5.5-5.5v0V94h-3.9
					c0,0.1,0,0.1,0,0.2L215.5,94.5z"/>
				<path class="st10" d="M197.1,86.8v0.8c0,1.5-0.5,2.9-1.4,4h5.5c-0.9-1.1-1.4-2.6-1.4-4v-0.8c0-3.6,2.9-6.5,6.5-6.5h2.5
					c-3.7-4.6-6.4-10.1-8.9-12.5c-6.6-6.2-15.7-3.4-15.7-3.4l0,0c0,0-4.9,4.8-6.5,15.9h13C194.2,80.3,197.1,83.2,197.1,86.8z"/>
				<path class="st10" d="M177.1,87.6v5h4.4c0.5-0.7,1.3-1.1,2.1-1.1h10.2c1.2-1,2-2.5,2-4v-0.8c0-2.8-2.3-5.1-5.1-5.1h-13.2
					C177.2,83.6,177.1,85.6,177.1,87.6z"/>
				<path class="st10" d="M182.6,99.7h2.8c0.4-0.9,1-1.8,1.6-2.6h-3.4c-1.4,0-2.6-1.2-2.6-2.6v0v-0.3c0-0.1,0-0.1,0-0.2H177v0.3
					C177,97.3,179.5,99.7,182.6,99.7C182.5,99.7,182.6,99.7,182.6,99.7z"/>
				<path class="st10" d="M209.9,81.6h-3.6c-2.8,0-5.1,2.3-5.1,5.1v0.8c0,1.6,0.7,3.1,1.9,4h9.8c0.9,0,1.6,0.4,2.1,1.1h4.4v-4.8
					C215.5,87,212.4,84.6,209.9,81.6z"/>
				<path class="st2" d="M189,46.9c-0.3,0.1-0.6,0.2-0.8,0.3c-5.7,2-6.8,6.1-6.4,9.8c0,0.1,0,0.2,0,0.3c-3.9,0.6-10.9,2.9-10.9,11.2
					c0.1,4.4,1.1,8.8,2.9,12.8c1.1-0.7,2.3-1.1,3.5-1.1h0.3c1.6-11.1,6.5-15.9,6.5-15.9l0,0c5-3.9,11.8-4.5,17.3-1.5
					c8.6,4.4,13.7,15.8,23.4,16.7c6.6,0.6,12.4-5.2,13.1-9.3c0,0,0,0,0-0.1c0-0.3,0.1-0.5,0.1-0.8c0.2-2.1,0.2-4.1,0.1-6.2
					c-2.3,0.7-4.8,1-7.2,0.9c-3.4,0-6.8-1.1-9.7-2.9c-1.7-1.1-3.4-2.5-5.3-3.9c-6-4.6-12.7-10.1-20.1-11
					C193.5,46.1,191.2,46.3,189,46.9z"/>
				<path class="st11" d="M209.4,97.1h3.4c1.4,0,2.6-1.2,2.6-2.6v0v-0.3c0-0.1,0-0.1,0-0.2h-9.3C207.4,94.9,208.5,95.9,209.4,97.1z"
					/>
				<path class="st11" d="M201.2,91.5h-3c1.1,0,2.3,0.1,3.3,0.4C201.4,91.8,201.3,91.7,201.2,91.5z"/>
				<path class="st11" d="M180.9,94.5c0,1.4,1.2,2.6,2.6,2.6h3.4c0.9-1.2,2-2.3,3.3-3.1h-9.3c0,0.1,0,0.1,0,0.2L180.9,94.5z"/>
				<path class="st11" d="M195.7,91.5l-0.2,0.3c0.9-0.2,1.9-0.3,2.8-0.3H195.7z"/>
				<path class="st11" d="M181.4,92.6h9.2c1.2,0,2.3-0.4,3.2-1.1h-10.2C182.7,91.6,181.9,92,181.4,92.6z"/>
				<path class="st11" d="M212.8,91.5h-9.8c0.9,0.7,2,1.1,3.2,1.1h8.7C214.5,92,213.7,91.6,212.8,91.5z"/>
				<path class="st3" d="M170.8,86.8v0.8c0,3.5,2.8,6.4,6.3,6.5h13.5c1.9,0,3.6-0.8,4.8-2.2l0.2-0.3c0.9-1.1,1.4-2.6,1.4-4v-0.8
					c0-3.6-2.9-6.5-6.5-6.5h-13.3C173.7,80.2,170.8,83.1,170.8,86.8L170.8,86.8z M174.3,82.6c0.9-0.6,1.9-0.9,3-0.9h13.3
					c2.8,0,5.1,2.3,5.1,5.1v0.8c0,2.8-2.3,5.1-5.1,5.1h-13.5c-2.7-0.1-4.8-2.3-4.9-4.9c0-0.1,0-0.1,0-0.2v-0.8
					C172.1,85.1,172.9,83.5,174.3,82.6z"/>
				<polygon class="st3" points="185.6,139.9 185.6,143.1 185.6,165.5 186.9,165.5 186.9,143.1 186.9,139.9 				"/>
				<polygon class="st3" points="209.5,139.9 209.5,143.1 209.5,165.5 210.8,165.5 210.8,143.1 210.8,139.9 				"/>
				<path class="st2" d="M199.8,67.7c2.6,2.4,5.2,7.8,8.9,12.5h10.8c3.6,0,6.5,2.9,6.5,6.5v0.8c0,0.1,0,0.2,0,0.2
					c8.6-2.2,11.2-11,11.9-17.5c-0.8,4.1-6.5,10-13.1,9.3c-9.7-0.9-14.9-12.3-23.4-16.7c-5.6-3-12.4-2.4-17.3,1.5
					C184.1,64.3,193.2,61.6,199.8,67.7z"/>
				<path class="st2" d="M219.3,87.9c0.8,0.2,1.6,0.3,2.4,0.3c1,0,1.9,0,2.9-0.1h0.1c0-0.2,0-0.3,0-0.5v-0.8c0-2.8-2.3-5.1-5.1-5.1
					h-9.7C212.4,84.6,215.5,87,219.3,87.9z"/>
				<path class="st3" d="M226.1,86.8c0-3.6-2.9-6.5-6.5-6.5h-13.3c-3.6,0-6.5,2.9-6.5,6.5v0.8c0,1.5,0.5,2.9,1.4,4
					c0.1,0.1,0.2,0.3,0.4,0.4c1.2,1.3,2.9,2,4.6,2h13.4c3.5,0,6.4-2.7,6.5-6.2c0-0.1,0-0.2,0-0.2L226.1,86.8z M221.7,92.2
					c-0.7,0.3-1.4,0.5-2.1,0.5h-13.3c-2.8,0-5.1-2.3-5.1-5.1v-0.8c0-2.8,2.3-5.1,5.1-5.1h13.3c2.8,0,5.1,2.3,5.1,5.1v0.8
					C224.7,89.5,223.5,91.3,221.7,92.2L221.7,92.2z"/>
			</g>
			<path class="st12" d="M187.2,84.1c0.1,0,0.3,0.1,0.5,0.2c1.4,0.7,0.9,2.9,0.6,3.7c-0.3,1.1-1.6,1.4-2.5,0.1
				C185,87,185.2,83.6,187.2,84.1z"/>
			<path class="st12" d="M209,84.1c0.1,0,0.3,0.1,0.5,0.2c1.4,0.7,0.9,2.9,0.6,3.7c-0.3,1.1-1.6,1.4-2.5,0.1
				C206.8,87,207,83.6,209,84.1z"/>
			<path class="st0" d="M214.7,78.9c-1.7-1.4-4-2.1-6.2-2.2c-0.8,0-5.5-0.1-4.8,1.6c0.1,0.1,0.2,0.3,0.3,0.4c0.5,0.6,2,0.3,2.7,0.3
				c1.1,0,2.3,0,3.4,0.3c1.1,0.2,2.1,0.6,3.2,0.7c0.4,0,1.1,0.1,1.4-0.2C215.1,79.6,215,79.2,214.7,78.9z"/>
			<path class="st0" d="M182.8,78.9c1.7-1.4,4-2.1,6.2-2.2c0.8,0,5.5-0.1,4.8,1.6c-0.1,0.1-0.2,0.3-0.3,0.4c-0.5,0.6-2,0.3-2.7,0.3
				c-1.1,0-2.3,0-3.4,0.3c-1.1,0.2-2.1,0.6-3.2,0.7c-0.4,0-1.1,0.1-1.4-0.2C182.4,79.6,182.5,79.2,182.8,78.9z"/>
		</g>
		<path class="st3" d="M193.9,101.1c0.5,1.2,1.6,0.6,4.2,0.5c1.2,0,2.3,0,3.1,0.1c0.8,0.1,1.3-0.7,1-1.4c-0.2-0.5-0.4-0.8-0.4-0.8
			c-2-2.5-6.1-2.3-7.4-0.1C194.4,99.4,193.7,100.5,193.9,101.1z"/>
	</g>
	<title>top-ticketing-systems-cover</title>
	<g>
		<path class="st6" d="M256.2,259.3c-0.3,0.9-0.5,1.8-0.8,2.7l-22.3-13.3c0.2-0.6,0.4,4.7,0.6,4.1L256.2,259.3z"/>
		<rect x="200.3" y="134.6" class="st13" width="407.3" height="268.7"/>
		<rect x="200.3" y="134.6" class="st14" width="407.3" height="21.5"/>
		<rect x="200.3" y="134.6" class="st15" width="21.3" height="268.7"/>
		<g>
			<path class="st3" d="M352.8,271.6h168.1c9.6,0,17.4,7.8,17.4,17.4v5c0,9.6-7.8,17.4-17.4,17.4H370.2c-9.6,0-17.4-7.8-17.4-17.4
				v-17.4V271.6z"/>
			<circle class="st14" cx="373.9" cy="291.3" r="10.4"/>
			<rect x="390.6" y="291.2" class="st4" width="130.3" height="3.7"/>
			<rect x="390.6" y="282.1" class="st4" width="130.3" height="3.7"/>
			<rect x="390.6" y="300.8" class="st4" width="61.2" height="3.7"/>
			<circle class="st3" cx="373.9" cy="287.2" r="3.2"/>
			<path class="st3" d="M373.9,290.4c-3.1,0-5.6,2.5-5.6,5.6l0,0h11.2C379.5,292.9,377,290.4,373.9,290.4z"/>
		</g>
		<g>
			<path class="st3" d="M378.6,322.7h158.1c9.6,0,17.4,7.8,17.4,17.4v5c0,9.6-7.8,17.4-17.4,17.4H396c-9.6,0-17.4-7.8-17.4-17.4
				v-17.4V322.7z"/>
			<circle class="st5" cx="399.7" cy="342.3" r="10.4"/>
			<rect x="416.4" y="342.3" class="st4" width="120.3" height="3.7"/>
			<rect x="416.4" y="333.1" class="st4" width="120.3" height="3.7"/>
			<rect x="416.4" y="351.8" class="st4" width="61.2" height="3.7"/>
			<circle class="st3" cx="399.7" cy="338.3" r="3.2"/>
			<path class="st3" d="M399.7,341.5c-3.1,0-5.6,2.5-5.6,5.6v0h11.2C405.3,344,402.8,341.5,399.7,341.5z"/>
		</g>
		<line class="st16" x1="289" y1="193.9" x2="289" y2="367.8"/>
		<g>
			<path class="st3" d="M247.4,177h83.2c3.4,0,6.1,2.7,6.1,6.1v26.3c0,3.4-2.7,6.1-6.1,6.1h-83.2c-3.4,0-6.1-2.7-6.1-6.1v-26.3
				C241.3,179.8,244,177,247.4,177z"/>
			<circle class="st2" cx="260.1" cy="196.3" r="10.4"/>
			<path class="st3" d="M261.6,198.1h-3l-0.5-8.5h3.9L261.6,198.1z M258.2,201.3c0-0.5,0.2-0.9,0.5-1.2c0.4-0.3,0.9-0.5,1.4-0.5
				c0.5,0,1,0.1,1.4,0.5c0.3,0.3,0.5,0.8,0.5,1.2c0,0.5-0.2,0.9-0.5,1.2c-0.4,0.3-0.9,0.5-1.4,0.5c-0.5,0-1-0.1-1.4-0.5
				C258.4,202.2,258.2,201.7,258.2,201.3L258.2,201.3z"/>
			<rect x="275.8" y="194.3" class="st4" width="52.7" height="3.7"/>
			<rect x="275.8" y="185.9" class="st2" width="24.5" height="3.7"/>
			<rect x="275.8" y="202.8" class="st4" width="52.7" height="3.7"/>
			<rect x="323.6" y="177" class="st5" width="4.9" height="9.7"/>
		</g>
		<g>
			<path class="st3" d="M247.4,231.3h83.2c3.4,0,6.1,2.7,6.1,6.1v26.3c0,3.4-2.7,6.1-6.1,6.1h-83.2c-3.4,0-6.1-2.7-6.1-6.1v-26.3
				C241.3,234.1,244,231.3,247.4,231.3z"/>
			<circle class="st17" cx="260.1" cy="250.6" r="10.4"/>
			<path class="st3" d="M261.6,252.4h-3l-0.5-8.5h3.9L261.6,252.4z M258.2,255.5c0-0.5,0.2-0.9,0.5-1.2c0.4-0.3,0.9-0.5,1.4-0.5
				c0.5,0,1,0.1,1.4,0.5c0.3,0.3,0.5,0.8,0.5,1.2c0,0.5-0.2,0.9-0.5,1.2c-0.4,0.3-0.9,0.5-1.4,0.5c-0.5,0-1-0.1-1.4-0.5
				C258.4,256.5,258.2,256,258.2,255.5L258.2,255.5z"/>
			<rect x="275.8" y="248.5" class="st4" width="52.7" height="3.7"/>
			<rect x="275.8" y="240.2" class="st17" width="24.5" height="3.7"/>
			<rect x="275.8" y="257.1" class="st4" width="52.7" height="3.7"/>
			<rect x="323.6" y="231.3" class="st14" width="4.9" height="9.7"/>
		</g>
		<g>
			<path class="st3" d="M247.4,287.2h83.2c3.4,0,6.1,2.7,6.1,6.1v26.3c0,3.4-2.7,6.1-6.1,6.1h-83.2c-3.4,0-6.1-2.7-6.1-6.1v-26.3
				C241.3,290,244,287.2,247.4,287.2z"/>
			<circle class="st9" cx="260.1" cy="306.5" r="10.4"/>
			<path class="st3" d="M261.6,308.3h-3l-0.5-8.5h3.9L261.6,308.3z M258.2,311.5c0-0.5,0.2-0.9,0.5-1.2c0.4-0.3,0.9-0.5,1.4-0.5
				c0.5,0,1,0.1,1.4,0.5c0.3,0.3,0.5,0.8,0.5,1.2c0,0.5-0.2,0.9-0.5,1.2c-0.4,0.3-0.9,0.5-1.4,0.5c-0.5,0-1-0.1-1.4-0.5
				C258.4,312.4,258.2,311.9,258.2,311.5L258.2,311.5z"/>
			<rect x="275.8" y="304.5" class="st4" width="52.7" height="3.7"/>
			<rect x="275.8" y="296.1" class="st9" width="24.5" height="3.7"/>
			<rect x="275.8" y="313" class="st4" width="52.7" height="3.7"/>
			<rect x="323.6" y="287.2" class="st18" width="4.9" height="9.7"/>
		</g>
		<g>
			<path class="st3" d="M247.4,345.6h83.2c3.4,0,6.1,2.7,6.1,6.1V378c0,3.4-2.7,6.1-6.1,6.1h-83.2c-3.4,0-6.1-2.7-6.1-6.1v-26.3
				C241.3,348.3,244,345.6,247.4,345.6z"/>
			<circle class="st4" cx="260.1" cy="364.8" r="10.4"/>
			<path class="st3" d="M261.6,366.7h-3l-0.5-8.5h3.9L261.6,366.7z M258.2,369.8c0-0.5,0.2-0.9,0.5-1.2c0.4-0.3,0.9-0.5,1.4-0.5
				c0.5,0,1,0.1,1.4,0.5c0.3,0.3,0.5,0.8,0.5,1.2c0,0.5-0.2,0.9-0.5,1.2c-0.4,0.3-0.9,0.5-1.4,0.5c-0.5,0-1-0.1-1.4-0.5
				C258.4,370.7,258.2,370.3,258.2,369.8L258.2,369.8z"/>
			<rect x="275.8" y="362.8" class="st4" width="52.7" height="3.7"/>
			<rect x="275.8" y="354.4" class="st4" width="24.5" height="3.7"/>
			<rect x="275.8" y="371.4" class="st4" width="52.7" height="3.7"/>
			<rect x="323.6" y="345.6" class="st15" width="4.9" height="9.7"/>
		</g>
		<path class="st14" d="M559.8,195.4v-1.5c0-0.2-0.1-0.3-0.3-0.3s-0.3,0.1-0.3,0.3v1.6l0,0c0,0.1,0,0.2,0.1,0.2l1.2,1.2
			c0.1,0.1,0.3,0.1,0.4,0c0.1-0.1,0.1-0.3,0-0.4l0,0L559.8,195.4z"/>
		<g>
			<path class="st3" d="M373.7,175h190.9c11.5,0,20.8,9.3,20.8,20.8l0,0v44.3c0,11.5-9.3,20.8-20.8,20.8H352.8v-6v-59.1
				c0-11.5,9.3-20.8,20.7-20.9C373.6,175,373.6,175,373.7,175z"/>
			<circle class="st5" cx="374.9" cy="195.9" r="10.4"/>
			<rect x="391.6" y="195.1" class="st4" width="133.4" height="3.7"/>
			<rect x="391.6" y="186.7" class="st5" width="61.2" height="3.7"/>
			<rect x="533.1" y="186.7" class="st4" width="36.7" height="3.7"/>
			<path class="st14" d="M564.2,206.9h-25.7c-3.1,0-5.5-2.5-5.5-5.5l0,0c0-3.1,2.5-5.5,5.5-5.5h25.7c3.1,0,5.5,2.5,5.5,5.5l0,0
				C569.8,204.4,567.3,206.9,564.2,206.9z"/>
			<rect x="391.6" y="203.4" class="st4" width="133.4" height="3.7"/>
			<rect x="364.5" y="215.6" class="st13" width="205.5" height="32.6"/>
			<path class="st3" d="M376.4,197.7h-3l-0.4-8.5h3.9L376.4,197.7z M373,200.9c0-0.5,0.2-0.9,0.5-1.2c0.4-0.3,0.9-0.5,1.4-0.5
				c0.5,0,1,0.1,1.4,0.5c0.3,0.3,0.5,0.8,0.5,1.2c0,0.5-0.2,0.9-0.5,1.2c-0.4,0.3-0.9,0.5-1.4,0.5c-0.5,0-1-0.1-1.4-0.5
				C373.2,201.8,373,201.3,373,200.9z"/>
			<path class="st3" d="M563.4,197.7c-2,0-3.7,1.6-3.7,3.7s1.6,3.7,3.7,3.7s3.7-1.6,3.7-3.7S565.5,197.7,563.4,197.7z"/>
			<path class="st14" d="M564.6,200.7"/>
		</g>
	</g>
	<g>
		<path class="st1" d="M474.7,83.8h76.9c3.1,0,5.7,2.5,5.7,5.7V110c0,3.1-2.5,5.7-5.7,5.7h-76.9c-3.1,0-5.7-2.5-5.7-5.7V89.4
			C469,86.3,471.6,83.8,474.7,83.8z"/>
		<circle class="st9" cx="484.6" cy="99.7" r="9.6"/>
		<path class="st3" d="M485.9,101.4h-2.7l-0.4-7.8h3.6L485.9,101.4z M482.8,104.3c0-0.4,0.1-0.9,0.4-1.2c0.4-0.3,0.8-0.5,1.3-0.4
			c0.5,0,0.9,0.1,1.3,0.4c0.3,0.3,0.5,0.7,0.4,1.2c0,0.4-0.1,0.9-0.5,1.2c-0.4,0.3-0.8,0.4-1.3,0.4c-0.5,0-0.9-0.1-1.3-0.4
			C483,105.2,482.8,104.8,482.8,104.3z"/>
		<rect x="499.1" y="97.9" class="st4" width="50.5" height="3.4"/>
		<rect x="499.1" y="91.1" class="st9" width="22.6" height="3.4"/>
		<rect x="499.1" y="104.8" class="st4" width="50.5" height="3.4"/>
		<rect x="545.1" y="83.8" class="st18" width="4.5" height="9"/>
	</g>
	<g>
		<path class="st1" d="M632.2,176.3h76.9c3.1,0,5.7,2.5,5.7,5.7v20.6c0,3.1-2.5,5.7-5.7,5.7h-76.9c-3.1,0-5.7-2.5-5.7-5.7V182
			C626.6,178.8,629.1,176.3,632.2,176.3z"/>
		<circle class="st9" cx="642.1" cy="192.3" r="9.6"/>
		<path class="st3" d="M643.5,194h-2.7l-0.4-7.8h3.6L643.5,194z M640.3,196.9c0-0.4,0.1-0.9,0.4-1.2c0.4-0.3,0.8-0.5,1.3-0.4
			c0.5,0,0.9,0.1,1.3,0.4c0.3,0.3,0.5,0.7,0.4,1.2c0,0.4-0.1,0.9-0.5,1.2c-0.4,0.3-0.8,0.4-1.3,0.4c-0.5,0-0.9-0.1-1.3-0.4
			C640.5,197.7,640.3,197.3,640.3,196.9z"/>
		<rect x="656.6" y="190.4" class="st4" width="50.5" height="3.4"/>
		<rect x="656.6" y="183.6" class="st4" width="22.6" height="3.4"/>
		<rect x="656.6" y="197.4" class="st4" width="50.5" height="3.4"/>
		<rect x="702.6" y="176.3" class="st17" width="4.5" height="9"/>
	</g>
	<g>
		<path class="st14" d="M89.1,81h48.3c10.3,0,18.7,8.4,18.7,18.7v18.7H89.1c-10.3,0-18.7-8.4-18.7-18.7l0,0
			C70.4,89.4,78.8,81,89.1,81C89.1,81,89.1,81,89.1,81z"/>
		<circle class="st3" cx="100.3" cy="99.7" r="3.6"/>
		<circle class="st3" cx="113.3" cy="99.7" r="3.6"/>
		<circle class="st3" cx="126.3" cy="99.7" r="3.6"/>
	</g>
	<g>
		<g>
			<path class="st19" d="M593.1,406.2c-0.9-0.3-1.8-0.6-2.8-0.9l7.6-23.2c0.7,0.2,1.3,0.4,2,0.6L593.1,406.2z"/>
			<path class="st19" d="M587.6,404.5c-12.3-4.5-23.4-11.7-32.6-21.1l17.5-17c6.6,6.8,14.6,11.9,23.5,15.2L587.6,404.5z"/>
			<path class="st19" d="M552,380c-18.4-20.9-25.7-49.4-19.7-76.6l23.8,5.3c-4.3,19.6,0.9,40.1,14.2,55.2L552,380z"/>
			<path class="st19" d="M561.2,294.4l-21.8-10.9c1.2-2.5,2.6-5,4.2-7.3l20.7,12.9C563.1,290.8,562.1,292.6,561.2,294.4z"/>
			<path class="st19" d="M703.3,339l-24-4.6c6.6-34.1-15.6-67.2-49.8-73.8c-23.9-4.6-48.3,4.9-62.7,24.5l-19.6-14.5
				c28.6-38.8,83.3-47,122.1-18.4C696.5,272.2,709.7,306,703.3,339z"/>
			<path class="st19" d="M701.1,348.2l-23.3-7.2c0.4-1.2,0.7-2.4,1-3.7l23.7,5.8C702,344.8,701.6,346.5,701.1,348.2z"/>
			<path class="st19" d="M617.6,409.7c-6.4,0-12.9-0.7-19.2-2.1l5.4-23.8c29.4,6.6,59.4-8.5,71.5-36.1l22.3,9.8
				c-9.4,21.2-26.7,37.8-48.3,46.3C639.2,407.7,628.5,409.8,617.6,409.7z"/>
		</g>
	</g>
	<g>
		<path class="st1" d="M639.3,395.7h76.9c3.1,0,5.7,2.5,5.7,5.7V422c0,3.1-2.5,5.7-5.7,5.7h-76.9c-3.1,0-5.7-2.5-5.7-5.7v-20.6
			C633.7,398.3,636.2,395.7,639.3,395.7z"/>
		<circle class="st17" cx="649.2" cy="411.7" r="9.6"/>
		<path class="st3" d="M650.6,413.4h-2.7l-0.4-7.8h3.6L650.6,413.4z M647.4,416.3c0-0.4,0.1-0.9,0.4-1.2c0.4-0.3,0.8-0.5,1.3-0.4
			c0.5,0,0.9,0.1,1.3,0.4c0.3,0.3,0.5,0.7,0.4,1.2c0,0.4-0.1,0.9-0.5,1.2c-0.4,0.3-0.8,0.4-1.3,0.4c-0.5,0-0.9-0.1-1.3-0.4
			C647.6,417.1,647.4,416.7,647.4,416.3z"/>
		<rect x="663.7" y="409.8" class="st4" width="50.5" height="3.4"/>
		<rect x="663.7" y="403" class="st17" width="22.6" height="3.4"/>
		<rect x="663.7" y="416.8" class="st4" width="50.5" height="3.4"/>
		<rect x="709.7" y="395.7" class="st14" width="4.5" height="9"/>
	</g>
	<g>
		<g>
			<path class="st3" d="M675.3,322.4c0,21.9-12.4,41.9-32,51.6c-1.2,0.6-2.5,1.2-3.7,1.7l-1,0.4c-10.3,4-21.5,5-32.4,2.8l-1.2-0.3
				c-5.3-1.2-10.4-3.1-15.1-5.7c-27.9-15.3-38.2-50.3-22.9-78.2c10.1-18.5,29.6-30,50.6-30C649.5,264.7,675.3,290.5,675.3,322.4
				C675.3,322.4,675.3,322.4,675.3,322.4z"/>
			<path class="st2" d="M672.3,340.7c-1.6,4.9-3.9,9.5-6.8,13.8c-5.6,8.4-13.3,15.1-22.3,19.6c-8-0.1-15.9-0.9-23.7-2.5v-0.1v1.4
				c0,0-15.3,2.2-29.8,0.1c-11.1-6.1-19.9-15.7-25-27.2c2.8-11.3,13.8-20.1,16.4-24.5c7-12.1-3.6-26.1,7.7-38.9
				c2.4-2.7,5.3-4.9,8.6-6.4c1.2-3.9,3.7-7.4,7.1-9.7c3.4-2.4,7.2-4.1,11.3-4.9c8.2-1.9,22-0.1,30.3,11c4.6,6.1,7.4,14.9,6.8,27.5
				c-0.8,14.5,2.1,21.3,4.9,26.6C659.4,329.4,667.7,333.6,672.3,340.7z"/>
			<path class="st18" d="M665.6,354.5c-6.4,9.5-15.4,16.9-26,21.3l-1,0.4c-10.3,4-21.5,5-32.4,2.8l-1.2-0.3
				c-14.4-3.2-27.1-11.9-35.3-24.2l0.7-1.4c6-12.3,18.5-20.1,32.1-20.1h30.3c13.7,0,26.1,7.8,32.1,20.1L665.6,354.5z"/>
			<path class="st10" d="M626.4,317.8v18.8c0.2,4.8-3.6,8.9-8.4,9c-4.8,0.2-8.9-3.6-9-8.4c0-0.2,0-0.4,0-0.6v-18.8H626.4z"/>
			<path class="st10" d="M617.7,270.4L617.7,270.4c-10.1,0-18.3,8.2-18.3,18.3l0,0v14.8h-0.2c-2,0-3.6,1.6-3.6,3.6s1.6,3.6,3.6,3.6
				h0.5c1.6,8.6,9.2,14.9,17.9,14.9l0,0c10.1,0,18.3-8.2,18.3-18.3l0,0v-18.7C635.9,278.6,627.8,270.4,617.7,270.4
				C617.7,270.4,617.7,270.4,617.7,270.4z"/>
			<path class="st2" d="M597.2,286.2c0,0,38.7,3.3,38.7,22.9c4,4.2,11.7,9.5,11.7,9.5l-7.3-40.7l-8.9-9.5l-21.8-2.3L597.2,286.2z"/>
		</g>
		<g>
			<path class="st12" d="M609.4,300.6c0.1,0,0.3,0,0.4,0.1c1.3,0.4,0.9,2.7,0.8,3.7c-0.2,1.2-1.3,1.8-2.1,0.7
				C607.7,304.1,607.7,300.6,609.4,300.6z"/>
			<path class="st12" d="M625.4,300.6c0.1,0,0.3,0,0.4,0.1c1.3,0.4,0.9,2.7,0.8,3.7c-0.2,1.2-1.3,1.8-2.1,0.7
				C623.8,304.1,623.7,300.6,625.4,300.6z"/>
			<path class="st3" d="M612.4,315.4c0,0,2.5-0.2,5.1-0.2c2.4,0,4.8,0.3,4.8,0.3c0,0-0.2-0.4-0.3-0.5c-2.2-1.9-6.3-2.4-9.1-0.6
				c0,0,0,0,0,0C612.8,314.6,612.4,315.4,612.4,315.4z"/>
			<path class="st12" d="M631.5,298.3c-1.5-1.3-3.5-1.8-5.4-1.9c-0.7,0-4.8-0.1-4.2,1.4c0.1,0.1,0.2,0.2,0.2,0.3
				c0.5,0.5,1.8,0.3,2.4,0.3c1,0,2,0,2.9,0.2c0.9,0.2,1.9,0.5,2.8,0.6c0.4,0,0.9,0.1,1.2-0.2C631.8,298.8,631.7,298.5,631.5,298.3z"
				/>
			<path class="st12" d="M603.7,298.3c1.5-1.3,3.5-1.8,5.4-1.9c0.7,0,4.8-0.1,4.2,1.4c-0.1,0.1-0.2,0.2-0.2,0.3
				c-0.5,0.5-1.8,0.3-2.4,0.3c-1,0-2,0-2.9,0.2c-0.9,0.2-1.9,0.5-2.8,0.6c-0.4,0-0.9,0.1-1.2-0.2
				C603.3,298.8,603.4,298.5,603.7,298.3z"/>
		</g>
	</g>
	<g>
		<path class="st9" d="M484,297.2L484,297.2c0,11.1,9,20.1,20.1,20.1h72.3v-20.1c0-11.1-9-20.1-20.1-20.1h-52.2
			C493.1,277.1,484,286.1,484,297.2z"/>
		<circle class="st3" cx="516.2" cy="297.2" r="3.9"/>
		<circle class="st3" cx="530.3" cy="297.2" r="3.9"/>
		<circle class="st3" cx="544.3" cy="297.2" r="3.9"/>
	</g>
	<g>
		<path class="st9" d="M132.2,471.7c-1.2-0.5-2.3-1-3.5-1.5l13.3-29.1c0.8,0.4,1.7,0.7,2.5,1.1L132.2,471.7z"/>
		<path class="st9" d="M125.4,468.6c-15.4-7.7-28.8-18.7-39.4-32.2l25.3-19.7c7.6,9.8,17.3,17.7,28.4,23.3L125.4,468.6z"/>
		<path class="st9" d="M82.5,431.5c-20.9-30-26.3-68.1-14.5-102.7l30.3,10.4c-8.5,24.9-4.6,52.5,10.4,74.1L82.5,431.5z"/>
		<path class="st9" d="M107,321.1l-26.9-17.4c2-3.1,4.1-6.1,6.5-8.9l25.1,19.9C110,316.8,108.4,318.9,107,321.1z"/>
		<path class="st9" d="M285.8,400.1l-30.6-9.5c13.6-43.5-10.6-89.9-54.2-103.5c-30.5-9.5-63.7-0.7-85.3,22.8l-23.5-21.8
			c43-46.4,115.5-49.2,162-6.2C286.7,311.9,299,357.9,285.8,400.1z"/>
		<path class="st9" d="M281.5,411.7l-29.4-12.8c0.7-1.5,1.3-3.1,1.9-4.6l30.1,11C283.3,407.4,282.4,409.6,281.5,411.7z"/>
		<path class="st9" d="M163.7,479.8c-8.4-0.9-16.7-2.8-24.7-5.5l10.5-30.3c37.4,12.9,78.7-2.5,98.5-36.7l27.7,16.1
			c-15.3,26.3-40.3,45.4-69.7,53.3C192.2,480.4,177.9,481.4,163.7,479.8z"/>
	</g>
	<g>
		<g>
			<path class="st3" d="M100.4,365.9c0,35.6,24.6,66.4,59.3,74.2l1.7,0.4c5,1,10,1.5,15.1,1.5c9.4,0,18.8-1.7,27.6-5.2l1.3-0.5
				c38.8-16,57.3-60.4,41.4-99.2c-16-38.8-60.4-57.3-99.2-41.4C119,307.4,100.4,335.1,100.4,365.9L100.4,365.9z"/>
			<g>
				<defs>
					<path id="SVGID_1_" d="M252.3,366c0,28.9-16.3,55.2-42.1,68.1c-1.7,0.8-3.2,1.5-4.9,2.2l-1.3,0.5c-13.6,5.3-28.4,6.5-42.6,3.7
						l-1.7-0.4c-7-1.6-13.7-4.1-19.9-7.5c-36.8-20.1-50.4-66.2-30.3-103c13.3-24.5,39.1-39.7,66.9-39.6
						C218.2,290,252.2,324,252.3,366C252.3,366,252.3,366,252.3,366z"/>
				</defs>
				<clipPath id="SVGID_2_">
					<use xlink:href="#SVGID_1_"  style="overflow:visible;"/>
				</clipPath>
				<g class="st20">
					<path class="st15" d="M218.2,400.7l-4.1,89.3h-61.2l-20.8-82.5c-2.6-10.5,3.7-21.1,14.2-23.7c1.6-0.4,3.2-0.6,4.8-0.6h50.4
						c9.2,0,16.7,7.5,16.7,16.7C218.2,400.2,218.2,400.4,218.2,400.7z"/>
					
						<ellipse transform="matrix(0.4 -0.9165 0.9165 0.4 -276.9738 376.5298)" class="st15" cx="149.1" cy="399.8" rx="16.7" ry="16.7"/>
					
						<ellipse transform="matrix(0.1368 -0.9906 0.9906 0.1368 -226.2888 508.6299)" class="st21" cx="178.7" cy="384.2" rx="14.2" ry="14.2"/>
					<polygon class="st15" points="244.2,434.6 222.9,452.2 202.7,427.7 188.6,410.6 215.5,390.7 228.6,410.7 					"/>
					<path class="st15" d="M175.6,415.9l21.7,28l0.2-0.2c5.6,7.2,16,8.6,23.2,3c7.2-5.6,8.6-16,3-23.2l0,0l-21.7-28L175.6,415.9z"/>
					<polygon class="st15" points="161.7,410.9 149.5,424.9 130.5,446.8 108.5,427.7 123.8,406.4 135.5,390.1 					"/>
					
						<rect x="162.3" y="351.1" transform="matrix(0.1368 -0.9906 0.9906 0.1368 -205.3612 494.9613)" class="st21" width="38.1" height="28.3"/>
				</g>
			</g>
			
				<ellipse transform="matrix(2.757271e-02 -0.9996 0.9996 2.757271e-02 -197.1293 499.6183)" class="st22" cx="158.2" cy="351.1" rx="20.2" ry="20.2"/>
			<path class="st22" d="M234.8,326.9c0.7-24.6-18.7-45-43.3-45.7c-24.6-0.7-45,18.7-45.7,43.3c-0.7,24.6,18.7,45,43.3,45.7
				l23.3-22.1c12,0.4,22-9.1,22.4-21.1C234.8,327,234.8,326.9,234.8,326.9z"/>
			<path class="st21" d="M168.4,347.1l6.4,0.2l0.4-12.9l-6.4-0.2c-3.6-0.1-6.6,2.6-6.7,6.2c0,0,0,0,0,0.1l0,0
				C162,344,164.8,347,168.4,347.1C168.4,347.1,168.4,347.1,168.4,347.1z"/>
			<path class="st21" d="M219.1,311.1l-48.4-1.3l-1.7,62.5l30.1,0.8c11.5,0.3,21.1-8.8,21.4-20.3c0-0.4,0-0.9,0-1.3L219.1,311.1z"/>
			<path class="st22" d="M170.1,334.3h-1.3l1-37.2l38.3,1.1c10.1,0.3,18,8.7,17.8,18.7v0.7h-1.3c-11-0.3-21.7,3-30.7,9.3l0,0
				C187,331.9,178.6,334.4,170.1,334.3L170.1,334.3z"/>
		</g>
		<path class="st12" d="M217.3,337.8c-0.1,0-0.3,0-0.5,0c-1.5,0.3-1.4,3.1-1.3,4.2c0.1,1.4,1.3,2.3,2.4,1.1
			C218.9,342.1,219.3,338,217.3,337.8z"/>
		<path class="st12" d="M194.2,336.8c-0.2,0-0.3,0-0.5,0c-1.5,0.3-1.4,3.1-1.3,4.3c0.1,1.4,1.3,2.3,2.5,1.1
			C195.8,341.2,196.2,337,194.2,336.8z"/>
		<g>
			<path class="st23" d="M206.6,355.7c1.4,0,3.6-0.3,3.8-2.1c0.3-1.7-1.2-8-1.3-8.7c-0.1-0.3-0.4-0.5-0.6-0.4
				c-0.3,0.1-0.5,0.4-0.4,0.6c0.4,1.9,1.5,7,1.3,8.3c-0.2,1.4-3,1.3-3.9,1.2c-0.3,0-0.6,0.2-0.6,0.5c0,0.3,0.2,0.6,0.5,0.6
				C205.4,355.7,205.9,355.7,206.6,355.7z"/>
		</g>
		<path class="st12" d="M185.9,333.4c2-1.7,4.7-2.4,7.3-2.6c1,0,6.5-0.1,5.7,1.9c-0.1,0.2-0.2,0.3-0.3,0.5c-0.6,0.7-2.4,0.4-3.2,0.3
			c-1.3,0-2.7,0-4,0.3c-1.3,0.3-2.5,0.7-3.8,0.8c-0.5,0-1.3,0.1-1.7-0.2C185.4,334.1,185.5,333.7,185.9,333.4z"/>
		<path class="st12" d="M212.9,333.6c0.1,0.2,0.2,0.3,0.3,0.5c0.7,0.7,2.4,0.3,3.2,0.3c1.3,0,2.7,0,4,0.3c1,0.2,1.9,0.5,2.9,0.6
			c0-0.9-0.1-1.8-0.2-2.7c-1.5-0.6-3-0.8-4.6-0.9C217.6,331.6,212,331.6,212.9,333.6z"/>
		<path class="st3" d="M197.8,361.2c0,0,3.5,0.3,7,0.3c3.4,0,6.7-0.4,6.7-0.4c0,0-0.3,0.6-0.3,0.6c-2.7,4.3-9.2,4.4-12.6,0.8
			c0,0,0,0,0-0.1C198.4,362.4,197.9,361.2,197.8,361.2z"/>
	</g>
	<g>
		<path class="st18" d="M351.1,322.5h-80.7c-17.2,0-31.1,13.9-31.1,31.1v31.1h111.8c17.2,0,31.1-13.9,31.1-31.1l0,0
			C382.3,336.5,368.3,322.5,351.1,322.5L351.1,322.5z"/>
		<circle class="st3" cx="332.5" cy="353.7" r="6"/>
		<circle class="st3" cx="310.8" cy="353.7" r="6"/>
		<circle class="st3" cx="289.1" cy="353.7" r="6"/>
	</g>
	<g>
		<path class="st18" d="M84.7,425.3c-4.8,0-9.6,1.1-13.9,3.2l0,0c-16,7.7-22.8,26.9-15.1,43c7.7,16,26.9,22.8,43,15.1
			c6.6-3.2,11.9-8.5,15.1-15.1l0,0c7.7-16,0.9-35.3-15.1-43C94.3,426.4,89.5,425.3,84.7,425.3L84.7,425.3z"/>
		<path class="st3" d="M81.8,477.6h-9.2l-9.9-21.9l9.7-4.4l5.8,12.7c6-8,19.4-23.5,41.4-38.2l5.9,8.9
			c-28.9,19.3-41.9,40.1-42.1,40.4L81.8,477.6z"/>
	</g>
</g>
</svg>
