<?xml version="1.0" encoding="UTF-8" standalone="no"?>
<!DOCTYPE svg PUBLIC "-//W3C//DTD SVG 1.1//EN" "http://www.w3.org/Graphics/SVG/1.1/DTD/svg11.dtd">
<svg width="100%" height="100%" viewBox="0 0 48 48" version="1.1" xmlns="http://www.w3.org/2000/svg" xmlns:xlink="http://www.w3.org/1999/xlink" xml:space="preserve" xmlns:serif="http://www.serif.com/" style="fill-rule:evenodd;clip-rule:evenodd;stroke-miterlimit:10;">
    <g transform="matrix(-0.0547566,0.0371249,0.0371249,0.0547566,16.0914,40.3391)">
        <path d="M-118.22,-110.5L63.493,-110.5L33.925,-36.296L-147.786,-36.299L-118.22,-110.5Z" style="fill:rgb(153,1,66);"/>
    </g>
    <g transform="matrix(0.0547583,-0.0371222,-0.0371222,-0.0547583,1.37641,34.8369)">
        <path d="M25.532,38.336L76.453,38.336L124.872,-83.154L73.943,-83.159L25.532,38.336Z" style="fill:rgb(226,70,50);"/>
    </g>
    <g transform="matrix(0.0661554,0,0,0.0661554,4.13977,29.8996)">
        <path d="M0,0L54.125,-36.697L108.25,-73.391L108.25,73.391L54.125,36.695L0,0Z" style="fill:rgb(201,8,64);"/>
    </g>
    <g transform="matrix(0.0661554,0,0,0.0661554,18.4624,29.8996)">
        <path d="M0,0L-54.122,-36.697L-108.25,-73.391L-108.25,73.391L-54.122,36.695L0,0Z" style="fill:rgb(175,8,69);"/>
    </g>
    <g transform="matrix(0,0.0661554,0.0661554,0,28.2053,41.0228)">
        <path d="M-123.314,-81.162L81.162,-81.162L52.052,-123.314L-94.731,-123.314L-123.314,-81.162Z" style="fill:rgb(107,5,71);"/>
    </g>
    <g transform="matrix(0.0661554,0,0,0.0661554,18.2395,26.6869)">
        <path d="M0,-0.001L13.662,9.265L27.328,18.53L27.328,-18.531L13.662,-9.265L0,-0.001Z" style="fill:rgb(175,8,69);"/>
    </g>
    <g transform="matrix(-0.0547564,-0.0371251,-0.0371251,0.0547564,16.0914,7.55872)">
        <path d="M-118.22,110.499L63.493,110.499L33.928,36.299L-147.785,36.298L-118.22,110.499Z" style="fill:rgb(248,149,14);"/>
    </g>
    <g transform="matrix(0.0547583,0.0371222,0.0371222,-0.0547583,1.37639,13.0608)">
        <path d="M25.532,-38.336L76.454,-38.336L124.872,83.155L73.943,83.16L25.532,-38.336Z" style="fill:rgb(226,70,50);"/>
    </g>
    <g transform="matrix(-0.0547564,0.037125,0.037125,0.0547564,7.21812,29.9136)">
        <path d="M-90.274,-105.637L35.52,-105.637L70.741,-53.689L-110.928,-53.631L-90.274,-105.637Z" style="fill:rgb(175,8,69);"/>
    </g>
    <g transform="matrix(0.0661554,0,0,0.0661554,4.13977,17.9981)">
        <path d="M0,0.001L54.125,36.697L108.25,73.392L108.25,-73.391L54.125,-36.703L0,0.001Z" style="fill:rgb(239,97,45);"/>
    </g>
    <g transform="matrix(0.0661554,0,0,0.0661554,18.4624,17.9981)">
        <path d="M0,0.001L-25.068,16.989L-29.057,14.289L-83.182,-22.408L-83.182,56.403L-108.25,73.392L-108.25,-73.391L-54.122,-36.703L0,0.001Z" style="fill:rgb(241,122,28);"/>
    </g>
    <g transform="matrix(0.0661554,0,0,0.0661554,1.35136,25.448)">
        <path d="M0,-141.193L0,0L104.122,-70.593L0,-141.193Z" style="fill:rgb(201,8,64);"/>
    </g>
    <g transform="matrix(0.0661554,0,0,0.0661554,22.836,15.0328)">
        <path d="M0,-203.947L-0.004,0L-150.403,-101.973L0,-203.947Z" style="fill:rgb(255,172,7);"/>
    </g>
    <g transform="matrix(-0.0547568,0.0371245,0.0371245,0.0547568,16.1371,12.2124)">
        <path d="M-174.338,-76.695L7.841,-76.695L-11.259,-29.929L-142.636,-29.936L-174.338,-76.695Z" style="fill:rgb(255,202,9);"/>
    </g>
    <g transform="matrix(0.0661554,0,0,0.0661554,20.0476,34.7558)">
        <path d="M0,146.783L-25.067,129.795L-25.067,50.982L-79.192,87.687L-83.181,90.388L-108.25,73.391L-54.125,36.696L-0.003,0L0,73.391L0,146.783Z" style="fill:rgb(127,5,71);"/>
    </g>
    <g transform="matrix(0.0661554,0,0,0.0661554,13.2643,41.7015)">
        <path d="M0,0.002L-26.798,-18.172L-53.594,-36.338L-53.594,36.34L-26.798,18.167L0,0.002Z" style="fill:rgb(127,5,71);"/>
    </g>
    <g transform="matrix(0.0661554,0,0,0.0661554,20.0474,22.2047)">
        <path d="M0,-0.008L-20.018,13.566L-40.035,27.138L-40.035,-27.146L-20.018,-13.581L0,-0.008Z" style="fill:rgb(241,122,28);"/>
    </g>
    <g transform="matrix(0.0661554,0,0,0.0661554,5.31248,38.7619)">
        <path d="M0,-0.008L13.662,9.257L27.327,18.522L27.327,-18.53L13.662,-9.264L0,-0.008Z" style="fill:rgb(153,1,66);"/>
    </g>
    <g transform="matrix(0.056207,-0.03489,-0.03489,-0.056207,30.9793,18.9757)">
        <path d="M-31.789,35.314L161.551,35.314L123.846,111.487L-69.499,111.472L-31.789,35.314Z" style="fill:rgb(67,217,250);"/>
    </g>
    <g transform="matrix(-0.056208,0.0348884,0.0348884,0.056208,35.817,16.3329)">
        <path d="M-140.094,84.762L-85.912,84.762L-24.167,-39.944L-78.349,-39.944L-140.094,84.762Z" style="fill:rgb(68,166,224);"/>
    </g>
    <g transform="matrix(0.0661554,0,0,0.0661554,43.6032,18.1004)">
        <path d="M0,-0.007L-59.113,36.696L-118.226,73.392L-118.226,-73.399L-59.113,-36.695L0,-0.007Z" style="fill:rgb(46,187,235);"/>
    </g>
    <g transform="matrix(0.0661554,0,0,0.0661554,27.9605,18.1004)">
        <path d="M0,-0.007L59.11,36.696L118.228,73.392L118.228,-73.399L59.11,-36.695L0,-0.007Z" style="fill:rgb(52,207,248);"/>
    </g>
    <g transform="matrix(0,-0.0661554,-0.0661554,0,31.7006,10.0089)">
        <path d="M-77.486,126.988L126.988,126.988L97.886,77.486L-48.912,77.486L-77.486,126.988Z" style="fill:rgb(61,243,255);"/>
    </g>
    <g transform="matrix(0.0661554,0,0,0.0661554,26.9732,18.7133)">
        <path d="M0,-0.007L-14.921,-9.263L-29.842,-18.53L-29.842,18.523L0,-0.007Z" style="fill:rgb(67,217,250);"/>
    </g>
    <g transform="matrix(0.0562055,0.0348924,0.0348924,-0.0562055,30.9794,29.126)">
        <path d="M-31.788,-35.316L161.553,-35.316L123.845,-111.475L-69.491,-111.483L-31.788,-35.316Z" style="fill:rgb(0,94,158);"/>
    </g>
    <g transform="matrix(-0.0562036,-0.0348954,-0.0348954,0.0562036,35.8174,31.7681)">
        <path d="M-140.088,-84.762L-85.902,-84.762L-24.173,39.951L-78.358,39.952L-140.088,-84.762Z" style="fill:rgb(5,104,158);"/>
    </g>
    <g transform="matrix(0.0562046,-0.0348939,-0.0348939,-0.0562046,41.7664,27.6609)">
        <path d="M-30.416,26.69L103.437,26.69L136.533,79.999L-56.769,80.066L-30.416,26.69Z" style="fill:rgb(46,187,235);"/>
    </g>
    <g transform="matrix(0.0661554,0,0,0.0661554,43.6032,30.0013)">
        <path d="M0,0.006L-59.113,-36.689L-118.226,-73.392L-118.226,73.398L0,0.006Z" style="fill:rgb(4,153,212);"/>
    </g>
    <g transform="matrix(0.0661554,0,0,0.0661554,27.9605,30.0013)">
        <path d="M0,0.006L27.375,-16.99L31.736,-14.28L90.849,22.407L90.849,-56.388L118.228,-73.392L118.228,73.398L59.11,36.702L0,0.006Z" style="fill:rgb(5,124,188);"/>
    </g>
    <g transform="matrix(0.0661554,0,0,0.0661554,46.6486,22.5515)">
        <path d="M0,141.2L0,0L-113.719,70.601L0,141.2Z" style="fill:rgb(52,207,248);"/>
    </g>
    <g transform="matrix(0.0661554,0,0,0.0661554,23.1837,32.9672)">
        <path d="M0,203.947L0.005,0L164.262,101.966L0,203.947Z" style="fill:rgb(2,66,135);"/>
    </g>
    <g transform="matrix(0.0562051,-0.034893,-0.034893,-0.0562051,26.275,48.6847)">
        <path d="M-21.958,53.225L171.886,53.225L147.625,101.224L7.843,101.227L-21.958,53.225Z" style="fill:rgb(0,44,111);"/>
    </g>
    <g transform="matrix(0.0661554,0,0,0.0661554,26.2291,13.2441)">
        <path d="M0,-146.79L27.379,-129.792L27.379,-50.991L86.492,-87.678L90.849,-90.388L118.228,-73.4L59.114,-36.695L0.004,0L0,-73.4L0,-146.79Z" style="fill:rgb(55,227,251);"/>
    </g>
    <g transform="matrix(0.0661554,0,0,0.0661554,33.6377,6.2983)">
        <path d="M0,0.001L29.264,18.175L58.533,36.339L58.533,-36.338L29.264,-18.172L0,0.001Z" style="fill:rgb(55,227,251);"/>
    </g>
    <g transform="matrix(0.0661554,0,0,0.0661554,26.7847,25.0444)">
        <path d="M0,-0.001L21.863,-13.582L43.727,-27.147L43.727,27.146L21.863,13.564L0,-0.001Z" style="fill:rgb(5,124,188);"/>
    </g>
    <g transform="matrix(0.0661554,0,0,0.0661554,42.3224,9.23803)">
        <path d="M0,0.008L-14.921,-9.258L-29.845,-18.522L-29.845,18.53L-14.921,9.272L0,0.008Z" style="fill:rgb(68,166,224);"/>
    </g>
    <g transform="matrix(0.0661554,0,0,0.0661554,23.266,25.2535)">
        <path d="M0,-6.321C2.025,-5.854 4.537,-5.675 8.098,-5.675C21.046,-5.675 29.041,-12.228 29.041,-23.157C29.041,-33.083 22.25,-38.988 9.956,-38.988C5.141,-38.988 1.776,-38.592 0,-38.181L0,-6.321ZM-24.161,-55.232C-16.659,-56.487 -6.1,-57.502 8.753,-57.502C23.716,-57.502 34.531,-54.592 41.753,-48.792C48.657,-43.436 53.188,-34.431 53.188,-23.854C53.188,-13.28 49.768,-4.278 43.342,1.681C35.011,9.507 22.59,13.122 8.317,13.122C5.086,13.122 2.2,12.908 0,12.568L0,51.181L-24.161,51.181L-24.161,-55.232Z" style="fill:rgb(201,8,64);fill-rule:nonzero;stroke:rgb(35,31,32);stroke-width:1.71px;"/>
    </g>
    <g transform="matrix(0.0661554,0,0,0.0661554,22.955,24.2275)">
        <path d="M0,-6.879C2.204,-6.372 4.938,-6.176 8.813,-6.176C22.906,-6.176 31.608,-13.309 31.608,-25.204C31.608,-36.007 24.216,-42.434 10.835,-42.434C5.595,-42.434 1.933,-42.003 0,-41.556L0,-6.879ZM-26.297,-60.114C-18.132,-61.48 -6.639,-62.585 9.527,-62.585C25.812,-62.585 37.584,-59.417 45.444,-53.104C52.958,-47.275 57.89,-37.475 57.89,-25.962C57.89,-14.454 54.167,-4.656 47.173,1.83C38.105,10.348 24.587,14.283 9.052,14.283C5.536,14.283 2.395,14.049 0,13.679L0,55.706L-26.297,55.706L-26.297,-60.114Z" style="fill:rgb(4,153,212);fill-rule:nonzero;stroke:rgb(35,31,32);stroke-width:2.98px;"/>
    </g>
</svg>
